<svg width="21" height="20" viewBox="0 0 21 20" fill="none" xmlns="http://www.w3.org/2000/svg">
<path d="M2.75 9.16663V9.16663C2.75 9.63128 2.75 9.86361 2.78843 10.0568C2.94624 10.8502 3.56644 11.4704 4.35982 11.6282C4.55302 11.6666 4.78535 11.6666 5.25 11.6666H5.81287C6.17989 11.6666 6.36339 11.6666 6.52174 11.7212C6.70751 11.7852 6.8703 11.9026 6.98978 12.0585C7.09163 12.1915 7.14966 12.3656 7.26572 12.7138L7.33333 12.9166C7.51492 13.4614 7.60572 13.7338 7.80249 13.9105C7.85578 13.9584 7.91407 14.0004 7.97634 14.0359C8.20626 14.1666 8.49338 14.1666 9.06762 14.1666H11.4324C12.0066 14.1666 12.2937 14.1666 12.5237 14.0359C12.5859 14.0004 12.6442 13.9584 12.6975 13.9105C12.8943 13.7338 12.9851 13.4614 13.1667 12.9166L13.2343 12.7138C13.3503 12.3656 13.4084 12.1915 13.5102 12.0585C13.6297 11.9026 13.7925 11.7852 13.9783 11.7212C14.1366 11.6666 14.3201 11.6666 14.6871 11.6666H15.25C15.7147 11.6666 15.947 11.6666 16.1402 11.6282C16.9336 11.4704 17.5538 10.8502 17.7116 10.0568C17.75 9.86361 17.75 9.63128 17.75 9.16663V9.16663" stroke="white" stroke-width="2"/>
<path d="M6.91675 7.5L10.2501 10M10.2501 10L13.5834 7.5M10.2501 10L10.2501 1.66667" stroke="white" stroke-width="2"/>
<path d="M13.5833 4.16663H13.75C15.6356 4.16663 16.5784 4.16663 17.1642 4.75241C17.75 5.3382 17.75 6.28101 17.75 8.16663V13.5C17.75 15.3856 17.75 16.3284 17.1642 16.9142C16.5784 17.5 15.6356 17.5 13.75 17.5H6.75C4.86438 17.5 3.92157 17.5 3.33579 16.9142C2.75 16.3284 2.75 15.3856 2.75 13.5V8.16662C2.75 6.28101 2.75 5.3382 3.33579 4.75241C3.92157 4.16663 4.86438 4.16663 6.75 4.16663H6.91667" stroke="white" stroke-width="2"/>
</svg>
