<svg width="24" height="25" viewBox="0 0 24 25" fill="none" xmlns="http://www.w3.org/2000/svg">
<path d="M3.00001 7.16663V7.16663C3.00001 5.78591 4.1193 4.66663 5.50001 4.66663L19.2857 4.66663C19.4852 4.66663 19.585 4.66663 19.6651 4.69468C19.8088 4.74494 19.9217 4.85786 19.9719 5.00149C20 5.08167 20 5.18142 20 5.38091V5.38091C20 6.57787 20 7.17635 19.8317 7.65746C19.5301 8.5192 18.8526 9.19674 17.9908 9.49828C17.5097 9.66663 16.9112 9.66663 15.7143 9.66663L15 9.66663M3.00001 7.16663V7.16663C3.00001 8.54734 4.11929 9.66663 5.50001 9.66663L19 9.66663C19.9428 9.66663 20.4142 9.66663 20.7071 9.95952C21 10.2524 21 10.7238 21 11.6666L21 13.6666M3.00001 7.16663L3.00001 17.6666C3.00001 19.5522 3.00001 20.4951 3.58579 21.0808C4.17158 21.6666 5.11439 21.6666 7.00001 21.6666L19 21.6666C19.9428 21.6666 20.4142 21.6666 20.7071 21.3737C21 21.0808 21 20.6094 21 19.6666L21 17.6666M21 17.6666H17C16.0572 17.6666 15.5858 17.6666 15.2929 17.3737C15 17.0808 15 16.6094 15 15.6666V15.6666C15 14.7238 15 14.2524 15.2929 13.9595C15.5858 13.6666 16.0572 13.6666 17 13.6666H21M21 17.6666L21 13.6666" stroke="white" stroke-width="2"/>
</svg>
