<svg width="21" height="21" viewBox="0 0 21 21" fill="none" xmlns="http://www.w3.org/2000/svg">
<path d="M18 12.5H15.737C15.2131 12.5 14.9511 12.5 14.73 12.6183C14.5089 12.7367 14.3636 12.9546 14.0729 13.3906L13.5937 14.1094C13.3031 14.5454 13.1578 14.7633 12.9367 14.8817C12.7156 15 12.4536 15 11.9296 15H9.07037C8.5464 15 8.28442 15 8.06333 14.8817C7.84223 14.7633 7.69691 14.5454 7.40627 14.1094L6.92707 13.3906C6.63642 12.9546 6.4911 12.7367 6.27001 12.6183C6.04891 12.5 5.78693 12.5 5.26297 12.5H3" stroke="#242424" stroke-width="2"/>
<path d="M7.16667 9.16669H5.91421C5.649 9.16669 5.39464 9.27204 5.20711 9.45958L3.29289 11.3738C3.10536 11.5613 3 11.8157 3 12.0809V16.3334C3 17.4379 3.89543 18.3334 5 18.3334H16C17.1046 18.3334 18 17.4379 18 16.3334V12.0809C18 11.8157 17.8946 11.5613 17.7071 11.3738L15.7929 9.45958C15.6054 9.27204 15.351 9.16669 15.0858 9.16669H13.8333" stroke="#242424" stroke-width="2" stroke-linecap="round"/>
<path d="M10.4998 4.16669C11.3144 4.16669 12.4827 4.52053 13.1979 4.76707C13.5845 4.90033 13.8332 5.26815 13.8332 5.67705V7.22802C13.8332 8.8954 12.7989 10.3879 11.2377 10.9733L10.851 11.1183C10.6246 11.2032 10.3751 11.2032 10.1487 11.1183L9.76201 10.9733C8.20079 10.3879 7.1665 8.8954 7.1665 7.22802V5.67705C7.1665 5.26815 7.41515 4.90033 7.80173 4.76707C8.51694 4.52053 9.68531 4.16669 10.4998 4.16669Z" stroke="#242424" stroke-width="2"/>
</svg>
