<svg width="24" height="25" viewBox="0 0 24 25" fill="none" xmlns="http://www.w3.org/2000/svg">
<path d="M4.45067 14.5748L11.4033 21.1061C11.6428 21.3311 11.7625 21.4435 11.9037 21.4713C11.9673 21.4837 12.0327 21.4837 12.0963 21.4713C12.2375 21.4435 12.3572 21.3311 12.5967 21.1061L19.5493 14.5748C21.5055 12.7372 21.743 9.71322 20.0978 7.59269L19.7885 7.19397C17.8203 4.65721 13.8696 5.08264 12.4867 7.98028C12.2913 8.38959 11.7087 8.38959 11.5133 7.98028C10.1304 5.08264 6.17972 4.65721 4.21154 7.19397L3.90219 7.5927C2.25695 9.71323 2.4945 12.7372 4.45067 14.5748Z" fill="#EE003B" stroke="#EE003B" stroke-width="2"/>
</svg>
