<svg width="21" height="18" viewBox="0 0 21 18" fill="none" xmlns="http://www.w3.org/2000/svg">
<path fill-rule="evenodd" clip-rule="evenodd" d="M8.80575 1.89772L6.75 5.6666L11.25 10.1666L10.25 12.6666L13.75 9.6666L9.75 5.6666L11.1013 3.97981C11.1737 3.9233 11.2344 3.84667 11.275 3.74993C12.6148 0.559941 16.8816 -0.0309176 19.0379 2.67495L19.4261 3.16216C21.282 5.49107 20.965 8.8704 18.7084 10.8136L11.3181 17.1774L11.3181 17.1774C11.0887 17.375 10.974 17.4737 10.8414 17.4984C10.781 17.5096 10.719 17.5096 10.6586 17.4984C10.5259 17.4737 10.4112 17.375 10.1819 17.1774L10.1819 17.1774L2.79157 10.8136C0.534999 8.8704 0.218015 5.49107 2.07386 3.16216L2.46211 2.67495C4.09547 0.625249 6.93991 0.467243 8.80575 1.89772Z" fill="white"/>
</svg>
