<svg width="24" height="25" viewBox="0 0 24 25" fill="none" xmlns="http://www.w3.org/2000/svg">
<path d="M11.95 18.6666C12.3 18.6666 12.596 18.5456 12.838 18.3036C13.08 18.0616 13.2007 17.766 13.2 17.4166C13.1993 17.0673 13.0787 16.7713 12.838 16.5286C12.5973 16.286 12.3013 16.1653 11.95 16.1666C11.5987 16.168 11.303 16.289 11.063 16.5296C10.823 16.7703 10.702 17.066 10.7 17.4166C10.698 17.7673 10.819 18.0633 11.063 18.3046C11.307 18.546 11.6027 18.6666 11.95 18.6666ZM12 22.6666C10.6167 22.6666 9.31667 22.404 8.1 21.8786C6.88334 21.3533 5.825 20.641 4.925 19.7416C4.025 18.8423 3.31267 17.784 2.788 16.5666C2.26333 15.3493 2.00067 14.0493 2 12.6666C1.99933 11.284 2.262 9.98396 2.788 8.76663C3.314 7.54929 4.02633 6.49096 4.925 5.59163C5.82367 4.69229 6.882 3.97996 8.1 3.45463C9.318 2.92929 10.618 2.66663 12 2.66663C13.382 2.66663 14.682 2.92929 15.9 3.45463C17.118 3.97996 18.1763 4.69229 19.075 5.59163C19.9737 6.49096 20.6863 7.54929 21.213 8.76663C21.7397 9.98396 22.002 11.284 22 12.6666C21.998 14.0493 21.7353 15.3493 21.212 16.5666C20.6887 17.784 19.9763 18.8423 19.075 19.7416C18.1737 20.641 17.1153 21.3536 15.9 21.8796C14.6847 22.4056 13.3847 22.668 12 22.6666ZM12 20.6666C14.2333 20.6666 16.125 19.8916 17.675 18.3416C19.225 16.7916 20 14.9 20 12.6666C20 10.4333 19.225 8.54163 17.675 6.99163C16.125 5.44163 14.2333 4.66663 12 4.66663C9.76667 4.66663 7.875 5.44163 6.325 6.99163C4.775 8.54163 4 10.4333 4 12.6666C4 14.9 4.775 16.7916 6.325 18.3416C7.875 19.8916 9.76667 20.6666 12 20.6666ZM12.1 8.36663C12.5167 8.36663 12.8793 8.49996 13.188 8.76663C13.4967 9.03329 13.6507 9.36663 13.65 9.76663C13.65 10.1333 13.5377 10.4583 13.313 10.7416C13.0883 11.025 12.834 11.2916 12.55 11.5416C12.1667 11.875 11.8293 12.2416 11.538 12.6416C11.2467 13.0416 11.1007 13.4916 11.1 13.9916C11.1 14.225 11.1877 14.421 11.363 14.5796C11.5383 14.7383 11.7423 14.8173 11.975 14.8166C12.225 14.8166 12.4377 14.7333 12.613 14.5666C12.7883 14.4 12.9007 14.1916 12.95 13.9416C13.0167 13.5916 13.1667 13.2793 13.4 13.0046C13.6333 12.73 13.8833 12.4673 14.15 12.2166C14.5333 11.85 14.8627 11.45 15.138 11.0166C15.4133 10.5833 15.5507 10.1 15.55 9.56663C15.55 8.71663 15.2043 8.02096 14.513 7.47963C13.8217 6.93829 13.0173 6.66729 12.1 6.66663C11.4667 6.66663 10.8627 6.79996 10.288 7.06663C9.71333 7.33329 9.27567 7.74163 8.975 8.29163C8.85834 8.49163 8.821 8.70429 8.863 8.92963C8.905 9.15496 9.01733 9.32563 9.2 9.44163C9.43333 9.57496 9.675 9.61663 9.925 9.56663C10.175 9.51663 10.3833 9.37496 10.55 9.14163C10.7333 8.89163 10.9627 8.69996 11.238 8.56663C11.5133 8.43329 11.8007 8.36663 12.1 8.36663Z" fill="white"/>
</svg>
