<svg width="39" height="53" viewBox="0 0 39 53" fill="none" xmlns="http://www.w3.org/2000/svg">
<path d="M1.59933 51.0014V46.1792H3.68667C4.11837 46.1792 4.49037 46.2504 4.80267 46.3928C5.11496 46.5305 5.35607 46.7303 5.526 46.9921C5.69593 47.2539 5.78089 47.5662 5.78089 47.929C5.78089 48.2872 5.69593 48.5972 5.526 48.859C5.35607 49.1208 5.11496 49.3228 4.80267 49.4652C4.49037 49.603 4.11837 49.6719 3.68667 49.6719H2.21933L2.71533 49.169V51.0014H1.59933ZM2.71533 49.293L2.21933 48.7625H3.62467C3.96911 48.7625 4.2263 48.6891 4.39622 48.5421C4.56615 48.3951 4.65111 48.1908 4.65111 47.929C4.65111 47.6626 4.56615 47.4559 4.39622 47.309C4.2263 47.162 3.96911 47.0885 3.62467 47.0885H2.21933L2.71533 46.5581V49.293ZM5.73068 51.0014L7.88001 46.1792H8.98223L11.1385 51.0014H9.96734L8.20379 46.7441H8.64468L6.87423 51.0014H5.73068ZM6.80534 49.9681L7.10156 49.1208H9.58156L9.88468 49.9681H6.80534ZM11.7779 51.0014V46.1792H15.6702V47.0679H12.887V48.0599H14.2235C14.8068 48.0599 15.2499 48.1816 15.553 48.425C15.8608 48.6684 16.0146 49.022 16.0146 49.4859C16.0146 49.9635 15.8447 50.3355 15.5048 50.6019C15.165 50.8682 14.685 51.0014 14.065 51.0014H11.7779ZM12.887 50.1748H14.003C14.2878 50.1748 14.5059 50.1196 14.6575 50.0094C14.809 49.8946 14.8848 49.7293 14.8848 49.5134C14.8848 49.0909 14.5909 48.8796 14.003 48.8796H12.887V50.1748ZM19.1717 51.0841C18.7905 51.0841 18.4368 51.0221 18.1108 50.8981C17.7893 50.7741 17.5091 50.5996 17.2703 50.3745C17.0361 50.1495 16.8524 49.8854 16.7192 49.5823C16.5906 49.2792 16.5263 48.9485 16.5263 48.5903C16.5263 48.2321 16.5906 47.9014 16.7192 47.5983C16.8524 47.2952 17.0384 47.0311 17.2772 46.8061C17.516 46.5811 17.7962 46.4065 18.1177 46.2825C18.4391 46.1585 18.7882 46.0965 19.1648 46.0965C19.5459 46.0965 19.895 46.1585 20.2119 46.2825C20.5334 46.4065 20.8112 46.5811 21.0454 46.8061C21.2842 47.0311 21.4702 47.2952 21.6034 47.5983C21.7366 47.8968 21.8032 48.2275 21.8032 48.5903C21.8032 48.9485 21.7366 49.2815 21.6034 49.5892C21.4702 49.8923 21.2842 50.1564 21.0454 50.3814C20.8112 50.6019 20.5334 50.7741 20.2119 50.8981C19.895 51.0221 19.5482 51.0841 19.1717 51.0841ZM19.1648 50.1334C19.3806 50.1334 19.5781 50.0967 19.7572 50.0232C19.9409 49.9497 20.1017 49.8441 20.2394 49.7063C20.3772 49.5685 20.4828 49.4055 20.5563 49.2172C20.6344 49.0289 20.6734 48.8199 20.6734 48.5903C20.6734 48.3607 20.6344 48.1517 20.5563 47.9634C20.4828 47.7751 20.3772 47.6121 20.2394 47.4743C20.1062 47.3365 19.9478 47.2309 19.7641 47.1574C19.5804 47.0839 19.3806 47.0472 19.1648 47.0472C18.9489 47.0472 18.7491 47.0839 18.5654 47.1574C18.3863 47.2309 18.2279 47.3365 18.0901 47.4743C17.9523 47.6121 17.8444 47.7751 17.7663 47.9634C17.6928 48.1517 17.6561 48.3607 17.6561 48.5903C17.6561 48.8154 17.6928 49.0243 17.7663 49.2172C17.8444 49.4055 17.95 49.5685 18.0832 49.7063C18.221 49.8441 18.3817 49.9497 18.5654 50.0232C18.7491 50.0967 18.9489 50.1334 19.1648 50.1334ZM23.6359 51.0014V46.8336L23.8908 47.0885H22.0996V46.1792H26.2812V47.0885H24.4901L24.7381 46.8336V51.0014H23.6359ZM26.1955 51.0014L28.3449 46.1792H29.4471L31.6033 51.0014H30.4322L28.6686 46.7441H29.1095L27.3391 51.0014H26.1955ZM27.2702 49.9681L27.5664 49.1208H30.0464L30.3495 49.9681H27.2702Z" fill="#6FBC85"/>
<path d="M31.1762 3.78552C31.2932 3.8171 31.3064 3.91075 31.2155 4.06538C25.8578 9.37073 20.5394 14.6031 15.2626 19.7626C15.1039 19.9422 14.9398 20.0195 14.7713 19.9934C12.1937 17.4681 9.64881 14.9091 7.05143 12.4034C4.47375 10.5653 1.53393 13.6296 3.36544 16.1331L14.2867 26.7732C15.1138 27.5246 16.3983 27.7184 17.3698 27.1293C21.7899 23.0185 26.0536 18.6562 30.3611 14.4528C31.0405 13.7897 31.9169 12.7345 32.6291 12.1911C32.6893 12.1443 32.7057 12.0746 32.8107 12.1018L32.8031 26.0425C32.3884 29.7482 29.2845 32.6905 25.5186 32.831C19.0503 32.7374 12.5514 33.0096 6.10176 32.6905C2.82714 32.0361 0.310732 29.195 0.0612793 25.8694V7.91372C0.440929 3.91075 3.46828 1.1862 7.47375 1.01197C13.4398 0.752802 19.5941 1.21452 25.5799 1.01197C26.5624 1.07404 27.4497 1.23412 28.3534 1.62505C29.4716 2.10963 30.3906 2.86972 31.1773 3.78552H31.1762Z" fill="white"/>
<path d="M31.1762 3.78552C31.3108 3.88679 31.4016 3.80294 31.5088 3.72454C32.5832 2.94594 33.6795 1.3637 34.7801 0.532831C37.1412 -1.25086 40.2921 1.82214 38.442 4.17754C33.523 9.06255 28.6269 13.9802 23.6663 18.8152C22.5821 19.8714 20.6948 22.2323 19.2145 22.3956C16.9792 22.6428 16.1521 21.3448 14.7714 19.9923C14.9158 19.8671 15.0854 19.7604 15.2265 19.6319C17.488 17.5836 19.6926 15.2107 21.8819 13.0612C24.9519 10.0481 28.0613 7.0382 31.1182 3.99677L31.1751 3.78334L31.1762 3.78552Z" fill="#6FBC85"/>
<path d="M15.1958 41.3836C15.3796 41.2399 15.4136 40.887 15.4683 40.6616C15.7845 39.356 15.9267 38.0046 16.2385 36.6989C16.3457 36.5901 17.3282 36.5389 17.4212 36.7882L18.372 41.4446L19.244 36.8285C19.2779 36.5367 20.2473 36.5868 20.3129 36.6793L18.8873 43.8087C18.8041 43.9666 17.8304 43.9383 17.7899 43.8784L16.8271 39.1534C16.6488 39.3353 16.6094 39.7349 16.5536 39.9941C16.2834 41.2497 16.1006 42.5259 15.8151 43.7782C15.7297 44.0003 14.8063 43.9502 14.7046 43.8272L13.2615 36.687C13.5372 36.6282 14.1783 36.5095 14.3348 36.7839L15.1947 41.3814L15.1958 41.3836Z" fill="white"/>
<path d="M11.2593 41.3836V36.7741C11.2593 36.7675 11.3435 36.6837 11.3501 36.6837H12.2888C12.3173 36.7937 12.3435 36.896 12.3523 37.0126C12.5208 39.1436 12.2177 41.4914 12.3523 43.6464C12.3523 43.7139 12.3381 43.776 12.2943 43.8305C12.1936 43.9568 11.3391 43.9786 11.2046 43.8185L9.04812 39.1556C8.91136 39.1306 8.96497 39.2155 8.9584 39.3048C8.88619 40.3121 8.94199 41.535 8.95622 42.5618C8.96169 42.9876 9.12799 43.4602 8.90261 43.8893C8.68051 43.9078 8.06015 43.9971 7.93433 43.8207L7.87744 36.7839C7.88948 36.7338 7.92011 36.7087 7.96825 36.6935C8.00326 36.6815 8.60611 36.6314 8.69363 36.6303C8.79867 36.6303 8.98029 36.6663 9.04812 36.7469L11.2593 41.3847V41.3836Z" fill="white"/>
<path d="M22.3381 39.7567C22.8523 39.7654 23.3698 39.7458 23.884 39.7534C24.0634 39.7567 24.2079 39.8515 24.396 39.7567V36.7741C24.396 36.6205 25.3293 36.5999 25.4748 36.6935C25.5055 36.7131 25.5328 36.8492 25.5394 36.8993L25.5142 43.7924C25.5011 43.8207 25.4048 43.9132 25.3939 43.9132H24.4551C24.4748 43.8544 24.395 43.7826 24.395 43.763V40.8108C24.395 40.8043 24.3107 40.7204 24.3041 40.7204H22.337V43.763C22.337 43.9524 21.4901 43.9513 21.3468 43.9056C21.2746 43.8827 21.2505 43.8348 21.2473 43.763L21.244 36.8906C21.198 36.4561 22.337 36.6238 22.337 36.773V39.7556L22.3381 39.7567Z" fill="white"/>
<path d="M4.23742 38.9727H3.35996C3.15536 38.9727 3.22538 38.4173 3.2046 38.2834C3.04923 37.2467 0.900438 37.1607 1.15427 38.7581C1.30963 39.736 3.58753 39.8493 4.1663 40.9415C4.50985 41.5905 4.43326 42.7295 3.96608 43.3121C3.30088 44.1441 1.47921 44.2072 0.664114 43.5833C0.399344 43.3807 0 42.8308 0 42.4976V41.5633H0.938731C1.06127 41.5633 1.02735 42.086 1.0558 42.2297C1.32385 43.555 3.87856 43.1771 3.2221 41.5197C2.98578 40.923 1.90919 40.7422 1.3698 40.4711C0.729759 40.1498 0.178337 39.6064 0.0765864 38.866C-0.366521 35.647 4.94858 35.8746 4.23851 38.9716L4.23742 38.9727Z" fill="white"/>
<path d="M30.3293 36.6837V42.7992C30.3293 42.8101 30.4705 42.9495 30.4803 42.9495H32.9322C33.0011 43.1009 33.0471 43.9132 32.8414 43.9132H29.3304C29.3239 43.9132 29.2396 43.8294 29.2396 43.8228V36.773C29.2396 36.7665 29.3239 36.6826 29.3304 36.6826H30.3293V36.6837Z" fill="white"/>
<path d="M26.8173 36.6837C27.0645 36.6173 27.8501 36.5421 27.9081 36.834L27.8162 43.9143H26.9081C26.9015 43.9143 26.8173 43.8305 26.8173 43.8239V36.6837Z" fill="white"/>
<path d="M5.67393 38.8659C5.90151 38.8169 6.54702 38.7875 6.59844 39.063L6.60063 43.6453C6.63564 44.0384 5.5142 44.0341 5.44965 43.7009L5.477 38.9716C5.52842 38.915 5.59954 38.8812 5.67284 38.8649L5.67393 38.8659Z" fill="white"/>
<path d="M5.50878 37.8892C5.42453 37.8358 5.43 36.908 5.47486 36.7403C5.51863 36.6783 6.43657 36.6107 6.523 36.6989C6.65101 36.8296 6.65648 37.8892 6.44641 37.8892H5.50768H5.50878Z" fill="white"/>
</svg>
