<svg width="24" height="25" viewBox="0 0 24 25" fill="none" xmlns="http://www.w3.org/2000/svg">
<path fill-rule="evenodd" clip-rule="evenodd" d="M7 2.66663C5.34315 2.66663 4 4.00977 4 5.66663V19.6666C4 21.3235 5.34315 22.6666 7 22.6666H11V17.6666L11 17.605C10.9999 16.9509 10.9999 16.3632 11.0638 15.8875C11.1337 15.3681 11.2958 14.8353 11.7322 14.3989C12.1687 13.9624 12.7015 13.8003 13.2208 13.7305C13.6966 13.6665 14.2843 13.6666 14.9384 13.6666L15 13.6666H20V5.66663C20 4.00977 18.6569 2.66663 17 2.66663H7ZM19.7305 15.6666H15C14.2646 15.6666 13.8137 15.6687 13.4873 15.7126C13.2005 15.7512 13.1526 15.806 13.1469 15.8125L13.1464 15.8131L13.1459 15.8135C13.1394 15.8192 13.0846 15.8671 13.046 16.154C13.0021 16.4803 13 16.9312 13 17.6666V22.3972C13.324 22.2497 13.6222 22.0445 13.8787 21.7879L19.1213 16.5453C19.3778 16.2888 19.5831 15.9906 19.7305 15.6666Z" fill="white"/>
</svg>
