<svg width="21" height="20" viewBox="0 0 21 20" fill="none" xmlns="http://www.w3.org/2000/svg">
<path d="M17.75 10H15.3086C14.872 10 14.6537 10 14.4694 10.0986C14.2852 10.1972 14.1641 10.3789 13.9219 10.7422L13.2448 11.7578C13.0026 12.1211 12.8815 12.3028 12.6972 12.4014C12.513 12.5 12.2947 12.5 11.858 12.5H8.64197C8.20533 12.5 7.98702 12.5 7.80277 12.4014C7.61853 12.3028 7.49743 12.1211 7.25522 11.7578L6.57811 10.7422C6.33591 10.3789 6.21481 10.1972 6.03056 10.0986C5.84632 10 5.628 10 5.19136 10H2.75" stroke="white" stroke-width="1.66667"/>
<path d="M7.33325 6.66675L10.2499 4.16675M10.2499 4.16675L13.1666 6.66675M10.2499 4.16675L10.2499 10.0001" stroke="white" stroke-width="1.66667"/>
<path d="M4.41667 7.5L2.99408 8.92259C2.8378 9.07887 2.75 9.29083 2.75 9.51184V14.1667C2.75 15.0871 3.49619 15.8333 4.41667 15.8333H16.0833C17.0038 15.8333 17.75 15.0871 17.75 14.1667V9.51184C17.75 9.29083 17.6622 9.07887 17.5059 8.92259L16.0833 7.5" stroke="white" stroke-width="1.66667" stroke-linecap="round"/>
</svg>
